<?xml version="1.0" standalone="no"?>
<!DOCTYPE svg PUBLIC "-//W3C//DTD SVG 20010904//EN" "http://www.w3.org/TR/2001/REC-SVG-20010904/DTD/svg10.dtd">
<svg version="1.0" xmlns="http://www.w3.org/2000/svg"
    width="193.000000pt" height="40.000000pt" viewBox="0 0 193.000000 40.000000"
    preserveAspectRatio="xMidYMid meet">

    <g transform="translate(0.000000,40.000000) scale(0.100000,-0.100000)"
        fill="#000000" stroke="none">
        <path
            d="M20 330 c0 -38 2 -40 30 -40 l30 0 0 -130 0 -130 35 0 35 0 0 130 0
130 30 0 c28 0 30 2 30 40 l0 40 -95 0 -95 0 0 -40z" />
        <path
            d="M250 200 l0 -170 40 0 40 0 0 78 1 77 19 -24 c15 -17 20 -38 20 -77
l0 -54 36 0 36 0 -6 78 c-6 94 -6 90 0 185 l6 77 -96 0 -96 0 0 -170z m120 76
c0 -8 -9 -24 -20 -37 l-19 -24 -1 38 c0 30 3 37 20 37 11 0 20 -6 20 -14z" />
        <path d="M480 200 l0 -170 40 0 40 0 0 170 0 170 -40 0 -40 0 0 -170z" />
        <path
            d="M600 255 c0 -128 11 -169 55 -203 20 -16 42 -22 76 -22 l49 0 0 41
c0 35 -2 40 -19 34 -26 -8 -67 13 -80 42 -6 13 -11 51 -11 83 l0 60 55 0 55 0
0 40 0 40 -90 0 -90 0 0 -115z" />
        <path
            d="M820 200 l0 -170 35 0 35 0 0 75 c0 42 4 75 10 75 18 0 40 -58 40
-105 0 -45 0 -45 35 -45 l35 0 0 71 c0 55 -5 79 -21 105 l-21 34 21 34 c12 18
21 47 21 65 0 29 -2 31 -35 31 -28 0 -36 -4 -41 -24 -3 -14 -14 -32 -25 -42
-18 -17 -19 -16 -19 24 0 41 -1 42 -35 42 l-35 0 0 -170z" />
        <path
            d="M1050 200 l0 -171 98 3 97 3 -2 70 c-1 39 -2 81 -2 95 0 14 1 57 2
95 l2 70 -97 3 -98 3 0 -171z m120 76 c0 -8 -9 -24 -20 -37 l-19 -24 -1 38 c0
30 3 37 20 37 11 0 20 -6 20 -14z m0 -152 c0 -8 -9 -14 -20 -14 -17 0 -20 7
-20 38 l1 37 19 -24 c11 -13 20 -29 20 -37z" />
        <path
            d="M1284 354 c3 -9 6 -85 6 -170 l0 -155 93 3 92 3 3 168 2 167 -40 0
-40 0 0 -130 c0 -123 -1 -130 -20 -130 -19 0 -20 7 -20 130 l0 130 -41 0 c-33
0 -40 -3 -35 -16z" />
        <path
            d="M1520 330 l0 -40 51 0 c51 0 51 0 44 -27 -7 -32 -50 -80 -77 -89 -15
-4 -18 -16 -18 -75 l0 -69 85 0 85 0 0 40 0 40 -42 0 -42 0 31 32 c46 49 53
70 53 152 l0 76 -85 0 -85 0 0 -40z" />
        <path
            d="M1730 330 l0 -40 50 0 c46 0 50 -2 50 -24 0 -31 -32 -70 -70 -86 -29
-12 -30 -14 -30 -81 l0 -69 85 0 85 0 0 40 0 40 -41 0 -42 0 28 22 c42 33 65
92 65 171 l0 67 -90 0 -90 0 0 -40z" />
    </g>
</svg>